<svg width="171" height="162" xmlns="http://www.w3.org/2000/svg"><path fill="#fff" d="M-1-1h173v164H-1z"/><path d="M10.558 81.39l75.443-67.566 75.45 67.566a5.144 5.144 0 007.417-.54 5.58 5.58 0 00-.515-7.676l-78.9-70.652a5.13 5.13 0 00-6.891 0L54.444 27.693V17.497c0-5.998-4.716-10.869-10.52-10.869-5.803 0-10.519 4.871-10.519 10.869v29.034L3.655 73.174a5.575 5.575 0 00-.526 7.676c1.917 2.259 5.23 2.503 7.43.54zm54.404 23.068h42.084v54.35h31.558c5.793 0 10.52-4.874 10.52-10.872V94.67a10.97 10.97 0 00-3.865-8.406L92.663 41.706a10.254 10.254 0 00-6.662-2.469 10.28 10.28 0 00-6.667 2.469L26.738 86.264a10.958 10.958 0 00-3.854 8.406v53.266c0 5.998 4.716 10.872 10.521 10.872h31.557v-54.35z" fill="#D5652C" fill-rule="evenodd"/></svg>