<svg width="141" height="145" xmlns="http://www.w3.org/2000/svg"><path fill="#fff" d="M-1-1h143v147H-1z"/><path d="M134.776 113.958c-7.945 8.86-29.853 26.75-61.587 26.75H36.354c-5.094 0-10.086-2.198-13.308-3.986 0 0-.974-.71-1.682-1.06v5.782H2.651V87.012h18.713v5.248a19.58 19.58 0 0110.59-3.138l40.099-.035c11.232.05 19.355 7.76 19.313 18.017-.008 1.833-.288 3.129-.716 4.211 4.79-.928 10.689-3.376 15.396-9.421 5.233-7.377 11.392-8.928 15.644-8.928 5.025 0 9.508 2.167 11.823 4.02 3.308 2.651 5.561 5.049 5.814 8.131.284 3.45-2.176 6.19-4.55 8.84zM15.096 92.45h-6.54v6.584h6.54V92.45zm114.34 9.682c-1.114-.893-4.172-2.587-7.746-2.587-3.96 0-7.444 2.093-10.357 6.22l-.085.117c-8.76 11.308-21.088 12.473-25.982 12.473l-1.738.004H52.344a3.28 3.28 0 01-3.27-3.289 3.28 3.28 0 013.27-3.29h29.38c.159-.04 3.099-.269 3.099-4.706.034-7.683-6.407-11.38-12.801-11.408l-40.083.035a12.982 12.982 0 00-7.84 2.64l-.715.543a3.206 3.206 0 01-2.02.646v29.004l.046-.003c.69 0 1.374.218 1.947.642.061.048 6.769 4.95 12.997 4.95H73.19c29.109 0 49.371-16.366 56.73-24.576.793-.883 2.898-3.23 2.89-3.893-.004-.032-.097-.895-3.372-3.522zM69.664 83.206V77.96c-3.112-.251-6.223-1.185-8.143-2.471l-.636-.429 2.021-7.077 1.167.694c2.363 1.403 5.19 2.205 7.755 2.205 2.784 0 4.583-1.244 4.583-3.167 0-1.316-.619-2.76-5.102-4.408-4.884-1.779-9.88-4.425-9.88-10.561 0-4.94 3.254-8.689 8.555-9.948v-5.434h6.452v5.025c2.506.189 4.67.775 6.752 1.82l.785.396-2.024 6.935-1.404-.648c-1.258-.592-3.37-1.58-6.487-1.58-2.502 0-3.997 1.001-3.997 2.685 0 1.466 1.4 2.502 5.77 4.26 6.485 2.447 9.267 5.7 9.267 10.87 0 5.156-3.498 9.152-8.982 10.387v5.69h-6.452zM111.8 39.959v47.442c-.777.745-1.557 1.486-2.352 2.22a183.544 183.544 0 01-7.092 6.158V34.03L74.178 14.124 45.358 34.06v50.205h-9.443V40.472l-4.503 3.102-5.333-7.84 12.372-8.522V11.593h11.883v7.432l21.2-14.6 2.702-1.87 2.649 1.872 45.883 31.572-5.331 7.841-5.637-3.88z" fill="#D5652C" fill-rule="evenodd"/></svg>