<svg xmlns="http://www.w3.org/2000/svg" width="42.671" height="39.987"><path fill-rule="evenodd" fill="#D8D8D8" d="M31.181 29.958L.845 30H.844a.818.818 0 01-.82-.82L0 11.384l.001-.014a.821.821 0 01.353-.664l4.603-3.187V4.14a.82.82 0 01.819-.821h5.247L15.536.194a.817.817 0 01.933.002l4.484 3.123h5.27a.82.82 0 01.82.821v3.419l4.58 3.19a.815.815 0 01.322.456c.019.042.03.115.03.163l.024 17.768a.82.82 0 01-.818.822zm-2.445-1.638l-12.724-9.888-12.77 9.923 25.494-.035zM4.957 9.515L2.26 11.382l2.697 1.867V9.515zM1.641 12.95l.02 14.555 9.897-7.69-9.917-6.865zm14.36-11.081l-2.094 1.45h4.175l-2.081-1.45zm9.403 3.091H6.596v9.424l6.32 4.376 2.594-2.016a.816.816 0 011.004 0l2.575 2.001 6.315-4.397V4.96zm1.639 4.599v3.647l2.618-1.824-2.618-1.823zm3.295 3.351l-9.892 6.889 9.912 7.703-.02-14.592zm-20.706.424a.82.82 0 01.82-.821h11.096a.82.82 0 010 1.642H10.452a.82.82 0 01-.82-.821zm11.916-3.448H10.452a.82.82 0 110-1.642h11.096a.82.82 0 010 1.642z"/></svg>