<svg 
 xmlns="http://www.w3.org/2000/svg"
 xmlns:xlink="http://www.w3.org/1999/xlink"
 width="0.847cm" height="0.847cm">
<path fill-rule="evenodd"  fill="rgb(255, 255, 255)"
 d="M12.000,-0.000 C5.345,-0.000 -0.000,5.345 -0.000,12.000 C-0.000,18.654 5.345,24.000 12.000,24.000 C18.655,24.000 24.000,18.654 24.000,12.000 C24.000,5.345 18.655,-0.000 12.000,-0.000 ZM18.927,8.236 L18.927,8.236 L18.927,8.236 L10.200,17.291 C10.091,17.400 9.982,17.454 9.818,17.454 C9.655,17.454 9.491,17.400 9.436,17.291 L5.182,12.709 L5.073,12.600 C4.964,12.491 4.909,12.327 4.909,12.218 C4.909,12.109 4.964,11.945 5.073,11.836 L5.836,11.073 C6.054,10.854 6.382,10.854 6.600,11.073 L6.654,11.127 L9.655,14.345 C9.764,14.454 9.927,14.454 10.036,14.345 L17.345,6.763 L17.400,6.763 C17.618,6.545 17.945,6.545 18.164,6.763 L18.927,7.527 C19.145,7.691 19.145,8.018 18.927,8.236 Z"/>
</svg>