<svg width="171" height="162" xmlns="http://www.w3.org/2000/svg">
 <!-- Created with SVG Editor - http://github.com/mzalive/SVG Editor/ -->

 <g>
  <title>background</title>
  <rect fill="#fff" id="canvas_background" height="164" width="173" y="-1" x="-1"/>
  <g display="none" overflow="visible" y="0" x="0" height="100%" width="100%" id="canvasGrid">
   <rect fill="url(#gridpattern)" stroke-width="0" y="0" x="0" height="100%" width="100%"/>
  </g>
 </g>
 <g>
  <title>Layer 1</title>
  <g id="svg_5">
   <path id="svg_4" d="m10.558223,81.390412l75.44324,-67.566129l75.448987,67.566129a5.144119,5.144119 0 0 0 7.417302,-0.540276a5.580938,5.580938 0 0 0 -0.514412,-7.675944l-78.900432,-70.6526a5.129749,5.129749 0 0 0 -6.891395,0l-28.117349,25.171695l0,-10.196275c0,-5.99764 -4.715921,-10.868746 -10.521016,-10.868746c-5.802221,0 -10.518142,4.871107 -10.518142,10.868746l0,29.034095l-29.749673,26.643085a5.57519,5.57519 0 0 0 -0.525907,7.675944c1.916831,2.258814 5.230333,2.503088 7.428797,0.540276zm54.404082,23.068067l42.084062,0l0,54.34948l31.557299,0c5.793599,0 10.521016,-4.87398 10.521016,-10.87162l0,-53.266054a10.96933,10.96933 0 0 0 -3.865273,-8.405892l-52.596456,-44.558412a10.253751,10.253751 0 0 0 -6.66149,-2.468602c-2.368019,0 -4.736038,0.827657 -6.667237,2.468602l-52.596456,44.558412a10.957835,10.957835 0 0 0 -3.853778,8.405892l0,53.266054c0,5.99764 4.715921,10.87162 10.521016,10.87162l31.557299,0l0,-54.34948z" fill="#D5652C" fill-rule="evenodd"/>
  </g>
 </g>
</svg>