<svg width="141" height="145" xmlns="http://www.w3.org/2000/svg">
 <!-- Created with SVG Editor - http://github.com/mzalive/SVG Editor/ -->

 <g>
  <title>background</title>
  <rect fill="#fff" id="canvas_background" height="147" width="143" y="-1" x="-1"/>
  <g display="none" overflow="visible" y="0" x="0" height="100%" width="100%" id="canvasGrid">
   <rect fill="url(#gridpattern)" stroke-width="0" y="0" x="0" height="100%" width="100%"/>
  </g>
 </g>
 <g>
  <title>Layer 1</title>
  <g id="svg_5">
   <path id="svg_4" d="m134.776412,113.957941c-7.945601,8.859953 -29.853393,26.749612 -61.587572,26.749612l-36.834488,0c-5.094521,0 -10.086805,-2.197145 -13.308255,-3.985339c0,0 -0.974151,-0.709876 -1.682099,-1.060957l0,5.783179l-18.713347,0l0,-54.432866l18.713347,0l0,5.248842a19.579474,19.579474 0 0 1 10.590277,-3.138503l40.098377,-0.034722c11.232638,0.050154 19.355708,7.760416 19.31327,18.016974c-0.007716,1.832562 -0.287423,3.128858 -0.715664,4.211034c4.789737,-0.927855 10.688657,-3.375771 15.395446,-9.421296c5.23341,-7.376543 11.392746,-8.927468 15.644289,-8.927468c5.025077,0 9.508101,2.166281 11.822916,4.020061c3.308256,2.650463 5.561342,5.048225 5.814043,8.130786c0.283565,3.449074 -2.175926,6.1902 -4.55054,8.840663zm-119.679775,-21.506557l-6.54128,0l0,6.583719l6.54128,0l0,-6.583719zm114.340269,9.681712c-1.114969,-0.893133 -4.172453,-2.586805 -7.746913,-2.586805c-3.960262,0 -7.444058,2.092978 -10.356866,6.219135l-0.084877,0.11767c-8.759644,11.30787 -21.087961,12.472993 -25.981865,12.472993l-1.73804,0.003858l-31.184411,0a3.279321,3.279321 0 0 1 -3.269676,-3.288966a3.279321,3.279321 0 0 1 3.269676,-3.290895l29.380785,0c0.158179,-0.03858 3.097994,-0.268133 3.097994,-4.704861c0.034722,-7.683256 -6.40625,-11.381172 -12.800925,-11.408178l-40.082944,0.034722a12.982252,12.982252 0 0 0 -7.839506,2.640818l-0.715664,0.542052a3.206018,3.206018 0 0 1 -2.019676,0.646219l0,29.004627l0.046296,-0.003858c0.690586,0 1.373457,0.217978 1.946373,0.642361c0.061728,0.048225 6.768904,4.949845 12.997684,4.949845l36.834488,0c29.108794,0 49.371138,-16.365739 56.73032,-24.575615c0.792824,-0.883488 2.897376,-3.231095 2.88966,-3.892747c-0.003858,-0.032793 -0.096451,-0.895062 -3.371913,-3.522376zm-59.774301,-18.927468l0,-5.244984c-3.111497,-0.250772 -6.222993,-1.184413 -8.14236,-2.471065l-0.636574,-0.428241l2.021605,-7.077546l1.167052,0.694444c2.36304,1.402392 5.189043,2.204861 7.754629,2.204861c2.783565,0 4.583333,-1.244213 4.583333,-3.167438c0,-1.315586 -0.619213,-2.760416 -5.102237,-4.407793c-4.884259,-1.778549 -9.8804,-4.425154 -9.8804,-10.561342c0,-4.9402 3.254244,-8.688271 8.555169,-9.947916l0,-5.434027l6.452546,0l0,5.025077c2.505787,0.189043 4.670139,0.775463 6.751543,1.820988l0.785108,0.395448l-2.023534,6.934799l-1.404321,-0.648148c-1.257716,-0.592207 -3.369984,-1.579861 -6.487268,-1.579861c-2.501929,0 -3.996913,1.001157 -3.996913,2.685185c0,1.466049 1.400463,2.501929 5.769675,4.259259c6.485339,2.447916 9.266975,5.700231 9.266975,10.869984c0,5.15625 -3.497299,9.153163 -8.981481,10.387731l0,5.690586l-6.452546,0zm42.137342,-43.246524l0,47.442126c-0.777392,0.744599 -1.556713,1.485339 -2.351466,2.220293a183.543582,183.543582 0 0 1 -7.092978,6.157407l0,-61.74768l-28.177081,-19.907406l-28.821371,19.936341l0,50.204471l-9.442515,0l0,-43.792435l-4.502314,3.101852l-5.333719,-7.839506l12.372684,-8.522376l0,-15.619212l11.882715,0l0,7.432484l21.199844,-14.600693l2.702546,-1.869213l2.648534,1.871142l45.883484,31.572143l-5.33179,7.841435l-5.636574,-3.881173z" fill="#D5652C" fill-rule="evenodd"/>
  </g>
 </g>
</svg>