<svg 
 xmlns="http://www.w3.org/2000/svg"
 xmlns:xlink="http://www.w3.org/1999/xlink"
 width="1.129cm" height="1.058cm">
<path fill-rule="evenodd"  fill="rgb(216, 216, 216)"
 d="M31.181,29.958 L0.845,30.000 C0.845,30.000 0.844,30.000 0.844,30.000 C0.627,30.000 0.419,29.914 0.265,29.760 C0.111,29.606 0.025,29.398 0.024,29.180 L-0.000,11.384 C-0.000,11.379 0.001,11.374 0.001,11.370 C0.005,11.113 0.128,10.863 0.354,10.706 L4.957,7.519 L4.957,4.140 C4.957,3.686 5.324,3.319 5.776,3.319 L11.023,3.319 L15.536,0.194 C15.817,-0.000 16.189,0.000 16.469,0.196 L20.953,3.319 L26.223,3.319 C26.676,3.319 27.043,3.686 27.043,4.140 L27.043,7.559 L31.623,10.749 C31.787,10.863 31.896,11.026 31.945,11.205 C31.964,11.247 31.975,11.320 31.975,11.368 L31.999,29.136 C32.000,29.589 31.633,29.957 31.181,29.958 ZM28.736,28.320 L16.012,18.432 L3.242,28.355 L28.736,28.320 ZM4.957,9.515 L2.260,11.382 L4.957,13.249 L4.957,9.515 ZM1.641,12.950 L1.661,27.505 L11.558,19.815 L1.641,12.950 ZM16.001,1.869 L13.907,3.319 L18.082,3.319 L16.001,1.869 ZM25.404,4.960 L6.596,4.960 L6.596,14.384 L12.916,18.760 L15.510,16.744 C15.808,16.512 16.215,16.520 16.503,16.737 C16.507,16.739 16.510,16.741 16.514,16.744 L19.089,18.745 L25.404,14.348 L25.404,4.960 ZM27.043,9.559 L27.043,13.206 L29.661,11.382 L27.043,9.559 ZM30.338,12.910 L20.446,19.799 L30.358,27.502 L30.338,12.910 ZM9.632,13.334 C9.632,12.881 9.999,12.513 10.452,12.513 L21.548,12.513 C22.000,12.513 22.367,12.881 22.367,13.334 C22.367,13.788 22.000,14.155 21.548,14.155 L10.452,14.155 C9.999,14.155 9.632,13.788 9.632,13.334 ZM21.548,9.886 L10.452,9.886 C9.999,9.886 9.632,9.519 9.632,9.066 C9.632,8.612 9.999,8.244 10.452,8.244 L21.548,8.244 C22.000,8.244 22.367,8.612 22.367,9.066 C22.367,9.519 22.000,9.886 21.548,9.886 Z"/>
</svg>